<?xml version="1.0" encoding="UTF-8"?>
<svg id="Layer_1" data-name="Layer 1" xmlns="http://www.w3.org/2000/svg" viewBox="0 0 24 24">
  <defs>
    <style>
      .cls-1, .cls-2 {
        fill: #fff;
      }

      .cls-2 {
        fill-rule: evenodd;
      }
    </style>
  </defs>
  <path class="cls-1" d="M8,13c-.55,0-1-.45-1-1s.45-1,1-1,1,.45,1,1-.45,1-1,1Z"/>
  <path class="cls-1" d="M8,17c-.55,0-1-.45-1-1s.45-1,1-1,1,.45,1,1-.45,1-1,1Z"/>
  <path class="cls-1" d="M11,16c0,.55.45,1,1,1s1-.45,1-1-.45-1-1-1-1,.45-1,1Z"/>
  <path class="cls-1" d="M16,17c-.55,0-1-.45-1-1s.45-1,1-1,1,.45,1,1-.45,1-1,1Z"/>
  <path class="cls-1" d="M11,12c0,.55.45,1,1,1s1-.45,1-1-.45-1-1-1-1,.45-1,1Z"/>
  <path class="cls-1" d="M16,13c-.55,0-1-.45-1-1s.45-1,1-1,1,.45,1,1-.45,1-1,1Z"/>
  <path class="cls-1" d="M8,7c-.55,0-1,.45-1,1s.45,1,1,1h8c.55,0,1-.45,1-1s-.45-1-1-1h-8Z"/>
  <path class="cls-2" d="M6,3c-1.66,0-3,1.34-3,3v12c0,1.66,1.34,3,3,3h12c1.66,0,3-1.34,3-3V6c0-1.66-1.34-3-3-3H6ZM18,5H6c-.55,0-1,.45-1,1v12c0,.55.45,1,1,1h12c.55,0,1-.45,1-1V6c0-.55-.45-1-1-1Z"/>
</svg>