<?xml version="1.0" encoding="UTF-8"?>
<svg id="LOGO" xmlns="http://www.w3.org/2000/svg" viewBox="0 0 700 105.96">
  <defs>
    <style>
      .cls-1 {
        fill: #e6683b;
      }
    </style>
  </defs>
  <path id="BASKETBALL" class="cls-1" d="M316.11,14.57l17.04,17.04c4.54-5.5,7.24-12.56,7.24-20.25,0-2.94-.4-5.78-1.14-8.48-8.74,1.88-16.66,5.98-23.15,11.68ZM311.59,19.09c-5.7,6.48-9.8,14.4-11.68,23.15,2.7.74,5.54,1.14,8.48,1.14,7.68,0,14.74-2.7,20.27-7.22l-17.06-17.06ZM350,1.77c-1.46,0-2.92.06-4.36.18.76,3.02,1.16,6.18,1.16,9.42,0,9.46-3.42,18.1-9.08,24.81l12.28,12.28,33.89-33.89c-9.04-7.96-20.91-12.8-33.89-12.8ZM308.39,49.78c-3.24,0-6.4-.4-9.42-1.16-.12,1.44-.18,2.9-.18,4.36,0,12.98,4.84,24.85,12.8,33.89l33.89-33.89-12.28-12.28c-6.7,5.66-15.34,9.08-24.81,9.08ZM401.03,57.34c.12-1.44.18-2.9.18-4.36,0-12.98-4.84-24.85-12.8-33.89l-33.89,33.89,12.28,12.28c6.68-5.66,15.34-9.08,24.81-9.08,3.24,0,6.4.4,9.42,1.16ZM400.09,63.72c-2.7-.74-5.54-1.14-8.48-1.14-7.68,0-14.74,2.7-20.27,7.22l17.06,17.06c5.7-6.46,9.82-14.38,11.68-23.15h0ZM366.82,74.33c-4.52,5.52-7.22,12.58-7.22,20.27,0,2.94.4,5.78,1.14,8.48,8.74-1.88,16.66-5.98,23.15-11.68l-17.04-17.04-.02-.02ZM362.28,69.79l-12.28-12.28-33.89,33.89c9.02,7.96,20.89,12.8,33.89,12.8,1.46,0,2.92-.06,4.36-.18-.76-3.02-1.16-6.18-1.16-9.42,0-9.46,3.42-18.1,9.08-24.81Z"/>
  <g id="STRIKER">
    <path class="cls-1" d="M120.92,49.8v9.4c0,3.37-.61,6.59-1.83,9.68-1.22,3.09-2.92,5.94-5.11,8.55-2.19,2.61-4.75,4.88-7.7,6.81-2.94,1.94-6.16,3.43-9.65,4.48-3.58,1.09-7.28,1.64-11.1,1.64-4.08,0-7.93-.62-11.54-1.86-3.62-1.24-6.9-3-9.84-5.27-2.44-1.89-4.82-4.37-7.13-7.44-2.31-3.07-4.1-6.81-5.36-11.23-1.18-3.95-1.77-8.07-1.77-12.36s.56-8.5,1.67-12.27c1.11-3.76,2.7-7.22,4.76-10.38,2.31-3.57,5.04-6.48,8.17-8.7,3.13-2.23,6.23-3.87,9.3-4.92,1.85-.59,3.79-1.05,5.83-1.39,2.04-.34,4.15-.5,6.34-.5,3.53,0,6.84.42,9.94,1.26,3.09.84,6,2.08,8.74,3.72,2.48,1.51,4.78,3.43,6.91,5.74,2.12,2.31,3.88,4.98,5.27,8.01.67,1.47,1.25,3.01,1.73,4.6.48,1.6.85,3.28,1.1,5.05h-15.14c-.25-1.35-.75-2.76-1.48-4.26-.74-1.49-1.76-2.91-3.06-4.26-2.36-2.31-5.21-3.89-8.58-4.73-1.72-.42-3.53-.63-5.42-.63-2.4,0-4.71.37-6.94,1.1-2.23.74-4.21,1.8-5.93,3.19-3.57,2.9-6.03,6.77-7.38,11.61-.67,2.44-1.01,5.07-1.01,7.89s.37,5.64,1.1,8.07c.74,2.44,1.65,4.48,2.74,6.12,1.14,1.81,2.55,3.43,4.26,4.86,1.7,1.43,3.73,2.54,6.09,3.34,2.19.76,4.56,1.14,7.13,1.14,1.85,0,3.64-.21,5.36-.63,1.72-.42,3.32-1.01,4.79-1.77,1.39-.71,2.7-1.63,3.94-2.74,1.24-1.11,2.28-2.39,3.12-3.82.84-1.34,1.51-2.84,2.02-4.48h-19.24v-12.62h34.88Z"/>
    <path class="cls-1" d="M124.71,51.75c0-4.16.65-8.11,1.96-11.83,1.3-3.72,3.13-7.18,5.49-10.38,2.31-3.15,5.08-5.89,8.29-8.2,3.22-2.31,6.68-4.1,10.38-5.36,1.85-.63,3.77-1.11,5.77-1.45,2-.34,4.03-.5,6.09-.5,4.25,0,8.24.66,11.98,1.99,3.74,1.32,7.17,3.1,10.28,5.33,3.57,2.65,6.48,5.6,8.71,8.86,2.23,3.26,3.89,6.49,4.98,9.68.63,1.89,1.11,3.83,1.45,5.8.34,1.98.5,4,.5,6.06,0,4.12-.64,8.14-1.92,12.05-1.28,3.91-3.08,7.49-5.39,10.72-2.36,3.2-5.14,5.98-8.36,8.36-3.22,2.38-6.65,4.19-10.31,5.46-3.83,1.35-7.8,2.02-11.92,2.02s-8.2-.67-11.99-2.02c-3.78-1.35-7.23-3.17-10.34-5.49-3.15-2.35-5.9-5.11-8.23-8.26-2.33-3.15-4.15-6.73-5.46-10.72-.63-1.89-1.11-3.86-1.45-5.9-.34-2.04-.5-4.11-.5-6.21ZM139.53,51.88c0,2.57.4,5.09,1.2,7.57.8,2.48,1.89,4.67,3.28,6.56,1.51,2.1,3.24,3.88,5.17,5.33,1.93,1.45,4.02,2.53,6.24,3.25,2.35.84,4.79,1.26,7.32,1.26s4.94-.41,7.25-1.23c2.31-.82,4.42-1.97,6.31-3.44,1.89-1.43,3.55-3.14,4.98-5.14,1.43-2,2.52-4.19,3.28-6.59.38-1.18.67-2.4.88-3.66.21-1.26.32-2.56.32-3.91,0-2.48-.4-4.91-1.2-7.29-.8-2.38-1.89-4.51-3.28-6.4-2.94-3.99-6.73-6.81-11.35-8.45-2.31-.8-4.71-1.2-7.19-1.2-2.02,0-4.21.33-6.56.98-2.36.65-4.71,1.84-7.06,3.56-1.94,1.43-3.63,3.11-5.08,5.05-1.45,1.93-2.55,4.06-3.31,6.37-.38,1.18-.67,2.39-.88,3.63-.21,1.24-.32,2.49-.32,3.75Z"/>
    <path class="cls-1" d="M200.59,89.73l11.73-75.06h21.19l11.73,75.06h-14.82l-2.21-17.22h-10.6l-2.21,17.22h-14.82ZM219.39,58.63h7.06l-2.52-23.53c-.08-.97-.15-1.84-.19-2.62-.04-.78-.08-1.62-.13-2.52-.04-.9-.06-2.01-.06-3.31h-1.26v2.71c-.04.34-.06.65-.06.95,0,.42-.02.85-.06,1.29-.04.44-.06.87-.06,1.29,0,.84-.06,1.58-.19,2.21l-2.52,23.53Z"/>
    <path class="cls-1" d="M249.67,89.73V14.66h14.82v61.19h15.45v13.88h-30.28Z"/>
  </g>
  <g id="GOAL">
    <path class="cls-1" d="M441.51,37.18v-4.42c0-4.08-1.37-6.12-4.1-6.12-1.26,0-2.25.48-2.96,1.45-.72.97-1.07,2.36-1.07,4.16,0,.55.05,1.14.16,1.77.1.63.37,1.3.79,2.02.34.63.84,1.38,1.51,2.24.67.86,1.51,1.78,2.52,2.74.5.55,1.07,1.11,1.7,1.7.59.63,1.26,1.28,2.02,1.96,2.27,2.06,4.36,4.08,6.28,6.06,1.91,1.98,3.48,3.72,4.7,5.24,1.22,1.6,2.19,3.13,2.9,4.6.71,1.47,1.24,2.99,1.58,4.54.17.8.28,1.62.35,2.46.06.84.09,1.72.09,2.65,0,2.52-.27,4.85-.82,6.97-.55,2.12-1.39,4.03-2.52,5.71-1.05,1.6-2.43,2.96-4.13,4.1-1.7,1.14-3.56,1.96-5.58,2.46-2.23.59-4.63.88-7.19.88-5.17,0-9.38-1.11-12.62-3.34-3.2-2.19-5.32-5.45-6.37-9.78-.55-2.1-.82-4.52-.82-7.25v-6.62h13.88v6.69c0,2.44.5,4.33,1.51,5.68.92,1.35,2.35,2.02,4.29,2.02.67,0,1.32-.09,1.96-.28.63-.19,1.16-.49,1.58-.92.38-.38.74-.85,1.07-1.42.34-.57.59-1.27.76-2.11.04-.38.08-.79.13-1.23s.06-.89.06-1.36c0-.88-.06-1.65-.19-2.3-.13-.65-.38-1.36-.76-2.11-.42-.76-1-1.53-1.73-2.33-.74-.8-1.59-1.68-2.55-2.65-.55-.5-1.15-1.05-1.8-1.64-.65-.59-1.36-1.22-2.11-1.89-2.36-2.1-4.41-4.03-6.15-5.77-1.75-1.74-3.23-3.44-4.45-5.08-1.22-1.6-2.18-3.14-2.87-4.64-.69-1.49-1.21-3.02-1.54-4.57-.17-.76-.28-1.56-.35-2.4-.06-.84-.09-1.7-.09-2.59,0-2.31.24-4.47.73-6.47.48-2,1.25-3.75,2.3-5.27,2.06-2.94,5.05-4.92,8.96-5.93,1.93-.5,4.14-.76,6.62-.76,4.71,0,8.58.95,11.61,2.84,1.01.63,2.08,1.62,3.22,2.96,1.14,1.35,2.02,3.18,2.65,5.49.5,1.89.76,4,.76,6.31v5.55h-13.88Z"/>
    <path class="cls-1" d="M471.03,89.73V28.54h-11.67v-13.88h38.16v13.88h-11.67v61.19h-14.82Z"/>
    <path class="cls-1" d="M542.31,34.22c0,3.74-.78,6.94-2.33,9.59-.71,1.26-1.59,2.38-2.62,3.34-1.03.97-2.3,1.79-3.82,2.46-1.43.59-2.96.97-4.61,1.14v1.01c1.51,0,3.05.48,4.61,1.45,1.47.97,2.63,2.25,3.47,3.85.21.42.39.84.54,1.26.15.42.28.84.41,1.26l7.51,30.15h-14.82l-8.77-31.73h-4.79v31.73h-14.82V14.66h22.08c2.02,0,3.96.31,5.83.92,1.87.61,3.56,1.5,5.08,2.68,1.51,1.22,2.79,2.61,3.82,4.16,1.03,1.56,1.84,3.34,2.43,5.36.55,2.06.82,4.21.82,6.43ZM517.08,44.12h3.47c.8,0,1.57-.1,2.3-.32.74-.21,1.42-.55,2.05-1.01,1.09-.88,1.87-2.15,2.33-3.79.17-.71.25-1.6.25-2.65,0-2.4-.61-4.3-1.83-5.71-1.22-1.41-2.92-2.11-5.11-2.11h-3.47v15.58Z"/>
    <path class="cls-1" d="M550.19,89.73V14.66h14.82v75.06h-14.82Z"/>
    <path class="cls-1" d="M587.41,14.66v13.75c0,1.05-.05,2.14-.16,3.28-.11,1.14-.26,2.38-.47,3.72-.25,1.35-.5,2.73-.76,4.16-.25,1.43-.57,2.92-.95,4.48-.21.76-.4,1.51-.57,2.27-.21.8-.42,1.6-.63,2.4h1.26c.13-.5.3-1.25.54-2.24.23-.99.49-1.99.79-3,.29-1.01.57-1.87.82-2.59.42-1.35.75-2.37.98-3.06.23-.69.47-1.38.73-2.05.25-.67.63-1.62,1.13-2.84.25-.63.5-1.25.76-1.86.25-.61.5-1.19.76-1.73l6.81-14.7h14.82l-14.19,29.4,15.45,45.67h-14.82l-9.9-29.27-2.4,3.53v25.74h-14.82V14.66h14.82Z"/>
    <path class="cls-1" d="M651.12,89.73h-31.54V14.66h31.22v13.88h-16.4v14.32h15.14v13.88h-15.14v19.11h16.72v13.88Z"/>
    <path class="cls-1" d="M696.85,34.22c0,3.74-.78,6.94-2.33,9.59-.71,1.26-1.59,2.38-2.62,3.34-1.03.97-2.3,1.79-3.82,2.46-1.43.59-2.96.97-4.61,1.14v1.01c1.51,0,3.05.48,4.61,1.45,1.47.97,2.63,2.25,3.47,3.85.21.42.39.84.54,1.26.15.42.28.84.41,1.26l7.51,30.15h-14.82l-8.77-31.73h-4.79v31.73h-14.82V14.66h22.08c2.02,0,3.96.31,5.83.92,1.87.61,3.56,1.5,5.08,2.68,1.51,1.22,2.79,2.61,3.82,4.16,1.03,1.56,1.84,3.34,2.43,5.36.55,2.06.82,4.21.82,6.43ZM671.62,44.12h3.47c.8,0,1.57-.1,2.3-.32.74-.21,1.42-.55,2.05-1.01,1.09-.88,1.87-2.15,2.33-3.79.17-.71.25-1.6.25-2.65,0-2.4-.61-4.3-1.83-5.71-1.22-1.41-2.92-2.11-5.11-2.11h-3.47v15.58Z"/>
  </g>
  <g id="THE">
    <path class="cls-1" d="M37.01,82.69H8.66v7.1H2.23v-23.21h6.43v7.1h28.35v9.01Z"/>
    <path class="cls-1" d="M37.01,63.7H2.23v-9.01h12.19v-6.71H2.23v-9.01h34.78v9.01h-16.16v6.71h16.16v9.01Z"/>
    <path class="cls-1" d="M37.01,15.18v19.18H2.23V15.37h6.43v9.97h6.63v-9.21h6.43v9.21h8.86v-10.16h6.43Z"/>
  </g>
</svg>