<?xml version="1.0" encoding="UTF-8"?>
<svg id="Layer_1" data-name="Layer 1" xmlns="http://www.w3.org/2000/svg" viewBox="0 0 512 512">
  <defs>
    <style>
      .cls-1 {
        fill: #fff;
      }
    </style>
  </defs>
  <path class="cls-1" d="M86.6,64l85.2,85.2c22.7-27.5,36.2-62.8,36.2-101.2,0-14.7-2-28.9-5.7-42.4-43.7,9.4-83.3,29.9-115.7,58.4Z"/>
  <path class="cls-1" d="M64,86.6C35.5,119,15,158.6,5.6,202.3c13.5,3.7,27.7,5.7,42.4,5.7,38.4,0,73.7-13.5,101.3-36.1l-85.3-85.3Z"/>
  <path class="cls-1" d="M256,0C248.7,0,241.4.3,234.2.9c3.8,15.1,5.8,30.9,5.8,47.1,0,47.3-17.1,90.5-45.4,124l61.4,61.4,169.4-169.4C380.2,24.2,320.9,0,256,0Z"/>
  <path class="cls-1" d="M48,240c-16.2,0-32-2-47.1-5.8-.6,7.2-.9,14.5-.9,21.8,0,64.9,24.2,124.2,64,169.4l169.4-169.4-61.4-61.4c-33.5,28.3-76.7,45.4-124,45.4Z"/>
  <path class="cls-1" d="M511.1,277.8c.6-7.2.9-14.5.9-21.8,0-64.9-24.2-124.2-64-169.4l-169.4,169.4,61.4,61.4c33.4-28.3,76.7-45.4,124-45.4,16.2,0,32,2,47.1,5.8Z"/>
  <path class="cls-1" d="M506.4,309.7c-13.5-3.7-27.7-5.7-42.4-5.7-38.4,0-73.7,13.5-101.3,36.1l85.3,85.3c28.5-32.3,49.1-71.9,58.4-115.7h0Z"/>
  <path class="cls-1" d="M340.1,362.7c-22.6,27.6-36.1,62.9-36.1,101.3,0,14.7,2,28.9,5.7,42.4,43.7-9.4,83.3-29.9,115.7-58.4l-85.2-85.2-.1-.1Z"/>
  <path class="cls-1" d="M317.4,340l-61.4-61.4-169.4,169.4c45.1,39.8,104.4,64,169.4,64,7.3,0,14.6-.3,21.8-.9-3.8-15.1-5.8-30.9-5.8-47.1,0-47.3,17.1-90.5,45.4-124Z"/>
</svg>